<svg width="535" height="496" viewBox="0 0 535 496" xmlns="http://www.w3.org/2000/svg">
  <path stroke="#fff" fill="#fff" d="M251.468 247.628c-6.281 5.816-6.657 15.623-.84 21.904 5.816 6.281 15.623 6.657 21.904.84l-21.064-22.744ZM534.489 21.595c.328-8.555-6.34-15.755-14.895-16.084L380.197.161c-8.554-.329-15.755 6.34-16.083 14.894-.328 8.554 6.34 15.755 14.894 16.083l123.909 4.756-4.756 123.909c-.329 8.554 6.34 15.755 14.894 16.083 8.554.328 15.755-6.34 16.083-14.894l5.351-139.397ZM272.532 270.371l257-238-21.064-22.744-257 238 21.064 22.744ZM10 59V49H0v10h10Zm0 426.5H0v10h10v-10Zm468.5 0v10h10v-10h-10Zm10-232.5c0-5.523-4.477-10-10-10s-10 4.477-10 10h20ZM313 49H10v20h303V49ZM0 59v426.5h20V59H0Zm10 436.5h468.5v-20H10v20Zm478.5-10V253h-20v232.5h20Z"/>
</svg>
